<svg xmlns="http://www.w3.org/2000/svg" viewBox="0 0 294.156 294.156" width="512" height="512"><g fill="#0B3A53"><path d="M227.002 108.256c-2.755-41.751-37.6-74.878-80.036-74.878-42.447 0-77.298 33.141-80.038 74.907C28.978 113.059 0 145.39 0 184.184c0 42.234 34.36 76.595 76.595 76.595h116.483c3.313 0 6-2.687 6-6s-2.687-6-6-6H76.595C40.977 248.778 12 219.801 12 184.184c0-34.275 26.833-62.568 61.087-64.411 3.184-.171 5.678-2.803 5.678-5.991 0-.119-.003-.236-.01-.355.09-37.536 30.654-68.049 68.211-68.049 37.563 0 68.132 30.518 68.211 68.063-.005.116-.009.238-.009.329 0 3.196 2.505 5.831 5.696 5.992 34.37 1.741 61.292 30.038 61.292 64.421 0 19.526-8.698 37.801-23.864 50.138-2.571 2.091-2.959 5.87-.868 8.44 2.091 2.571 5.87 2.959 8.44.868 17.98-14.626 28.292-36.293 28.292-59.447 0-38.913-29.076-71.256-67.154-75.926z"/><path d="M140.966 141.078v76.511c0 3.313 2.687 6 6 6s6-2.687 6-6v-76.511c0-3.313-2.687-6-6-6s-6 2.687-6 6z"/><path d="M181.283 152.204c1.536 0 3.071-.586 4.243-1.757 2.343-2.343 2.343-6.142 0-8.485l-34.317-34.317c-2.343-2.343-6.143-2.343-8.485 0l-34.317 34.317c-2.343 2.343-2.343 6.142 0 8.485 2.343 2.343 6.143 2.343 8.485 0l30.074-30.074 30.074 30.074c1.172 1.171 2.708 1.757 4.243 1.757z"/></g></svg>
